HIERARCHY
ROOT Hips
{
  OFFSET -331.093 83.8371 -317.828
  CHANNELS 6 Xposition Yposition Zposition Zrotation Xrotation Yrotation
  JOINT LeftUpLeg
  {
    OFFSET 8.64259 1.95398 -2.38835
    CHANNELS 3 Zrotation Xrotation Yrotation
    JOINT LeftLeg
    {
      OFFSET 43.7702 0 0
      CHANNELS 3 Zrotation Xrotation Yrotation
      JOINT LeftFoot
      {
        OFFSET 40.6238 0 0
        CHANNELS 3 Zrotation Xrotation Yrotation
        JOINT LeftToeBase
        {
          OFFSET 12.7242 0 0
          CHANNELS 3 Zrotation Xrotation Yrotation
          End Site
          {
            OFFSET 0 0 0
          }
        }
      }
    }
  }
  JOINT RightUpLeg
  {
    OFFSET -8.2249 1.95398 -2.59336
    CHANNELS 3 Zrotation Xrotation Yrotation
    JOINT RightLeg
    {
      OFFSET 43.5653 0 0
      CHANNELS 3 Zrotation Xrotation Yrotation
      JOINT RightFoot
      {
        OFFSET 40.6238 0 0
        CHANNELS 3 Zrotation Xrotation Yrotation
        JOINT RightToeBase
        {
          OFFSET 12.7242 0 0
          CHANNELS 3 Zrotation Xrotation Yrotation
          End Site
          {
            OFFSET 0 0 0
          }
        }
      }
    }
  }
  JOINT Spine
  {
    OFFSET 0.165834 0.87714 6.61349
    CHANNELS 3 Zrotation Xrotation Yrotation
    JOINT Spine1
    {
      OFFSET 7.38963 1.71661e-005 0
      CHANNELS 3 Zrotation Xrotation Yrotation
      JOINT Spine2
      {
        OFFSET 11.9445 1.14441e-005 0
        CHANNELS 3 Zrotation Xrotation Yrotation
        JOINT Spine3
        {
          OFFSET 14.7254 4.19617e-005 0
          CHANNELS 3 Zrotation Xrotation Yrotation
          JOINT Spine4
          {
            OFFSET 10.9679 0 0
            CHANNELS 3 Zrotation Xrotation Yrotation
            JOINT RightShoulder
            {
              OFFSET 2.46616 -1.6653 3.69651
              CHANNELS 3 Zrotation Xrotation Yrotation
              JOINT RightArm
              {
                OFFSET 13.0012 0 0
                CHANNELS 3 Zrotation Xrotation Yrotation
                JOINT RightForeArm
                {
                  OFFSET 28.7848 1.62311e-005 0
                  CHANNELS 3 Zrotation Xrotation Yrotation
                  JOINT RightHand
                  {
                    OFFSET 26.5688 1.62095e-005 0
                    CHANNELS 3 Zrotation Xrotation Yrotation
                    End Site
                    {
                      OFFSET 0 0 0
                    }
                  }
                }
              }
            }
            JOINT LeftShoulder
            {
              OFFSET 2.38034 -1.29275 -3.7523
              CHANNELS 3 Zrotation Xrotation Yrotation
              JOINT LeftArm
              {
                OFFSET 16.3182 6.07031e-005 0
                CHANNELS 3 Zrotation Xrotation Yrotation
                JOINT LeftForeArm
                {
                  OFFSET 27.0901 0 0
                  CHANNELS 3 Zrotation Xrotation Yrotation
                  JOINT LeftHand
                  {
                    OFFSET 24.5451 1.51738e-005 0
                    CHANNELS 3 Zrotation Xrotation Yrotation
                    End Site
                    {
                      OFFSET 0 0 0
                    }
                  }
                }
              }
            }
            JOINT Neck
            {
              OFFSET 5.0226 -0.0266342 0
              CHANNELS 3 Zrotation Xrotation Yrotation
              JOINT Head
              {
                OFFSET 6.69364 2.86102e-005 0
                CHANNELS 3 Zrotation Xrotation Yrotation
                End Site
                {
                  OFFSET 0 0 0
                }
              }
            }
          }
        }
      }
    }
  }
}
MOTION
Frames:	18
Frame Time:	0.0416667
284.891 85.6522 -283.024 -95.4138 -40.3426 -87.1834 -179.928 38.6502 97.5082 -76.7933 84.4958 -2.18509 145.425 -27.6882 165.511 117.227 -27.315 -84.0723 171.901 42.5762 107.59 -93.864 1.95825 -13.3705 115.547 -15.1713 -7.66561 -18.6591 -53.9012 120.112 1.58392 8.39245 -90.4302 10.1049 2.96032 -1.10194 -1.56326 2.90899 -1.23126 -24.1253 3.15451 -0.160474 -4.1126 3.15453 -0.160463 107.544 -67.5307 -74.7148 6.64315 -11.9706 27.4351 -50.0013 42.668 -116.865 -18.7882 7.33019 -61.6176 -92.1224 -50.5935 76.1951 -31.9412 21.1365 28.1319 8.39042 1.53995 -66.5082 26.9983 2.31199 4.77909 -8.58406 10.5103 -33.1456 -0.801107 13.313 49.8502 
283.589 86.7567 -281.938 -95.0596 -42.1674 -87.4632 -171.884 31.0797 103.129 -27.6553 76.5133 -46.4625 -22.8498 -49.3107 -27.2849 148.577 63.8999 -30.7344 172.592 38.631 106.015 -91.3643 4.21716 -13.2112 117.341 -15.053 -7.47077 -20.6288 -54.1205 117.27 1.4525 8.62664 -90.4699 9.6348 2.68347 -1.13999 -2.03399 2.63068 -1.25706 -24.5909 2.90193 -0.280184 -4.57822 2.90192 -0.280185 99.4114 -66.5175 -85.0619 7.36058 -11.191 20.4856 -52.9086 40.1062 -109.978 -17.5437 6.2936 -59.5747 -96.2521 -52.2881 70.6785 -30.2204 18.0051 30.0775 6.84229 3.37705 -62.2765 31.4207 3.6943 7.89347 -8.68705 5.94234 -25.682 8.21886 10.8801 35.3279 
282.644 89.0369 -281.769 -92.3403 -44.95 -86.9841 -170.986 24.9743 103.849 -47.2007 60.5797 -25.2849 -17.6239 -1.23932 -30.3553 29.3794 84.5287 90.3675 173.223 34.3112 103.337 -86.0846 8.49558 -11.971 117.237 -15.1313 -6.90581 -28.289 -54.6937 106.689 1.19806 8.82033 -90.4608 9.24349 2.18275 -1.07055 -2.42613 2.13354 -1.16561 -24.9754 2.40355 -0.364732 -4.96271 2.40355 -0.364729 94.5482 -58.4289 -92.2515 13.8797 -9.25279 13.172 -56.8987 35.5269 -103.431 -18.4084 5.94314 -55.3641 -96.8451 -51.5818 69.616 -33.4753 18.0564 32.1527 -2.37803 -2.29849 -61.5908 45.0772 3.52769 4.79095 0.125065 -0.871861 -14.0429 6.82875 2.58276 18.6523 
282.184 89.5041 -281.238 -84.7131 -47.3637 -82.6139 -173.271 33.2703 96.1699 -60.2503 71.4159 -11.8596 -11.7443 -32.4001 -24.5732 113.349 75.9825 -2.85069 173.655 33.6505 101.324 -83.5281 14.1975 -10.2849 116.288 -15.4009 -6.38671 -31.6153 -50.2993 96.6756 0.960619 8.66548 -90.3874 9.54971 1.74067 -0.900348 -2.12045 1.69936 -0.976108 -24.6644 1.93077 -0.335409 -4.65173 1.93077 -0.335429 92.5029 -48.3508 -96.9044 23.5455 -7.49188 6.4803 -44.2759 27.9241 -105.983 -16.7899 4.21039 -43.0508 -95.3667 -49.8998 71.2426 -37.197 17.4211 34.691 -0.867254 -3.20709 -65.8232 42.6805 4.30778 6.52841 2.66756 -1.85655 -6.19391 10.1019 0.0978244 8.65517 
279.623 89.1242 -277.948 -73.4862 -47.1667 -75.3445 -169.223 52.3155 86.9203 -76.5418 42.7981 -2.3411 33.7995 -16.9034 19.0216 66.8286 41.47 12.9349 174.045 32.5133 100.43 -80.7317 19.6257 -10.2531 113.74 -13.1688 -6.48776 -30.1547 -42.0663 87.2998 0.893973 8.18631 -90.2583 10.5067 1.66215 -0.661289 -1.16344 1.63142 -0.73382 -23.707 1.78403 -0.131022 -3.69436 1.78402 -0.131029 93.1598 -38.4091 -97.925 31.6934 -9.14807 -1.3485 -29.7072 18.7794 -104.122 -16.7906 0.0399506 -6.81686 -92.7772 -47.7573 74.4821 -40.4952 16.0367 35.7956 9.48803 -0.191881 -69.2933 28.4264 5.05571 14.1621 7.68938 -2.30437 0.690061 7.44432 -2.23846 1.74484 
274.741 90.6062 -271.673 -67.7022 -43.9441 -74.4419 -164.968 58.3196 81.2332 -68.0315 16.9889 -3.23057 60.7909 -0.373608 2.19969 37.9594 18.6796 27.5223 174.843 26.4115 97.2277 -73.9095 19.1349 -13.6419 102.629 -6.88797 -6.80264 -32.7019 -31.2768 66.4043 1.12015 7.80576 -89.7584 11.2608 2.34176 0.250616 -0.408038 2.35052 0.147232 -22.9579 2.15812 0.94314 -2.94521 2.15812 0.94312 93.9043 -32.7251 -97.9177 36.6 -9.45514 -4.42649 -24.7725 8.94442 -99.1869 -17.6684 -1.0823 1.95675 -91.1582 -45.9131 76.4719 -45.1011 16.6295 37.7673 2.67362 -4.35131 -71.3057 38.7028 4.23323 7.33573 9.18357 -2.09803 3.22814 6.78872 -2.87779 -1.75619 
268.832 93.0909 -264.079 -67.0324 -43.3764 -74.3812 -166.786 57.4334 81.9005 -52.3711 18.433 -5.97577 57.8082 -1.16401 5.05537 45.7295 22.6655 18.4871 173.936 17.988 94.231 -65.9259 15.5284 -14.3472 81.4617 3.75567 -2.48444 -26.5777 -18.1971 47.4768 1.32885 7.59432 -89.565 11.6798 2.84718 0.570081 0.0118532 2.86951 0.444115 -22.5432 2.54415 1.39992 -2.53055 2.54416 1.39991 94.1516 -31.9354 -97.6425 37.6931 -10.934 -2.59669 -24.9867 6.69644 -100.133 -22.6098 -1.05717 0.0867335 -91.3586 -44.4729 75.7825 -46.9033 14.5831 40.8303 0.92627 -6.09863 -73.923 26.209 1.68989 -0.915563 6.24978 -2.3763 2.15329 9.0582 -2.87994 -1.56838 
262.592 94.1934 -256.157 -67.9333 -44.3453 -72.8231 -168.697 54.8052 83.7793 -44.9498 14.8963 -6.08189 59.3142 0.0231633 4.46108 43.9375 23.8659 23.8443 175.263 9.2533 92.9103 -57.4275 11.6789 -12.8586 58.2042 9.71157 4.11532 -4.06376 -6.0264 37.8606 1.3898 7.49934 -89.6942 11.875 2.90785 0.298587 0.207329 2.91818 0.170212 -22.3507 2.68358 1.15933 -2.33806 2.68358 1.15932 94.3225 -31.6503 -97.38 37.5326 -14.3928 -0.903628 -25.2904 6.22763 -101.507 -25.516 -1.38947 1.1514 -91.1994 -43.1449 75.6792 -47.8454 12.7339 41.5219 -3.10564 -6.87198 -75.9551 0.692806 -1.24913 -28.4195 4.85044 -2.48064 1.43694 8.39405 -2.81463 -1.47413 
256.615 94.2329 -248.727 -69.8851 -46.4404 -72.8849 -168.573 50.347 83.75 -44.1942 13.3448 -6.75847 60.039 0.402382 4.70783 41.8496 21.8732 24.6814 176.861 1.35748 91.77 -51.0281 8.92611 -8.53062 47.2382 6.96122 5.18638 19.813 1.27275 28.0307 1.18394 7.51982 -89.7767 11.8345 2.45944 0.183119 0.165908 2.46511 0.0746295 -22.3859 2.29064 0.914196 -2.37326 2.29065 0.914195 94.3093 -31.8939 -97.3458 37.5924 -18.6643 1.63298 -23.7383 6.84899 -99.1023 -25.9271 -1.01683 -0.673063 -90.5751 -43.1109 76.6694 -46.8192 10.5823 39.6257 2.80578 -5.82417 -77.2317 29.7395 2.38433 4.21423 2.78941 -1.92261 1.13575 9.37927 -2.23648 -1.71768 
250.409 93.4893 -241.694 -71.7443 -46.6112 -74.0843 -167.197 45.3152 83.2442 -47.8038 11.8899 -6.96104 62.5279 1.76623 3.9362 38.3209 10.574 9.15777 178.427 1.07592 91.4941 -54.3812 5.00313 -6.90158 46.1251 5.1093 4.31554 31.0483 1.09842 7.47115 1.12208 7.45324 -89.6754 11.9657 2.38415 0.389951 0.296934 2.39902 0.284575 -22.2528 2.1567 1.08877 -2.24012 2.1567 1.08877 93.652 -34.031 -98.078 37.5253 -20.8608 6.18561 -25.3689 6.27227 -95.9135 -23.6462 -1.46623 2.03872 -91.2139 -44.3215 75.9722 -43.2168 9.45005 37.0168 3.27471 -5.67181 -78.7966 30.3995 2.77998 5.36321 1.08868 -1.42248 0.928318 8.94833 -1.84619 -3.26431 
244.937 92.5732 -234.148 -74.5559 -47.4367 -77.5101 -167.593 37.8873 81.3062 -51.6793 9.52471 -6.43588 67.6578 7.98184 8.58544 42.0648 11.3603 3.05608 178.597 6.97118 88.8411 -65.8224 6.81827 -6.11326 51.7306 2.6115 1.97157 30.7994 -0.613827 -4.29431 0.887356 7.53121 -89.4024 11.8033 2.04566 0.97375 0.133643 2.08653 0.882735 -22.4079 1.65846 1.5436 -2.39521 1.65844 1.5436 93.0403 -36.4239 -98.6164 38.6652 -21.8115 11.2362 -24.3173 3.41889 -89.127 -25.0403 -1.42444 1.44939 -91.9618 -45.8097 75.1997 -38.7335 9.28271 33.0096 3.75625 -5.48953 -80.5126 31.2183 2.7551 4.98852 -0.935289 -0.857849 -0.318372 10.5676 -1.09913 -2.72458 
239.901 91.4475 -227.744 -74.9267 -47.9468 -78.531 -168.185 33.4595 80.3893 -55.0395 9.94706 -5.33299 68.5891 10.0902 11.0073 50.3156 17.4421 1.43208 -179.755 19.8091 89.2434 -78.8753 10.8704 -5.16394 57.6567 -0.396522 -0.421128 28.8814 -0.587541 -4.94597 0.612425 7.62129 -89.1819 11.6194 1.6016 1.46449 -0.0512714 1.66452 1.39258 -22.5842 1.08749 1.87804 -2.57152 1.0875 1.87805 92.7869 -38.8333 -98.4866 39.0314 -21.727 14.5051 -22.4182 0.484876 -84.361 -26.732 -1.63635 1.97232 -93.5445 -47.6842 73.3047 -32.2319 9.15771 26.041 4.80451 -4.9125 -81.7186 35.5571 3.4646 5.95486 0.574703 -0.198925 -1.62772 10.4494 -0.222868 -2.45655 
234.816 90.4523 -221.662 -74.4193 -51.9861 -78.8732 -169.952 27.8501 79.9883 -55.9118 14.0352 -4.39786 67.8756 11.6491 13.9792 57.1733 24.3043 3.01124 178.598 32.9564 89.2372 -86.4014 12.1234 -3.57626 61.8525 -2.24744 -1.67418 31.8195 -0.943238 -6.12609 0.0121241 7.80603 -89.0045 11.2535 0.487534 1.93389 -0.41872 0.572165 1.91056 -22.9423 -0.116087 1.991 -2.92967 -0.116105 1.99098 92.0517 -41.3413 -99.1564 39.3889 -20.8364 18.5919 -20.1145 -2.4171 -76.2596 -29.9246 -1.15761 -0.683088 -94.4184 -47.1797 71.834 -26.5842 10.0582 16.6105 5.94833 -4.61554 -81.5273 35.9346 3.62244 6.29256 1.65923 0.226526 -3.0462 10.814 0.415535 -2.47188 
229.554 90.1607 -214.764 -73.9072 -53.2502 -77.7331 -171.518 21.0951 82.3426 -54.425 13.5873 -3.50823 70.9858 9.61241 6.18022 57.5661 28.6834 8.93709 177.852 44.3912 90.6643 -84.9738 10.5357 -2.50153 63.0827 -2.41296 -1.7504 38.4054 -2.57618 -11.6941 -0.374218 7.82011 -89.1377 11.2326 -0.343524 1.75041 -0.439475 -0.266169 1.76382 -22.9672 -0.853656 1.56632 -2.95454 -0.853644 1.56632 91.3553 -41.2513 -100.363 41.1522 -20.9207 24.3584 -17.5223 -3.3165 -73.5863 -32.076 -1.0217 -1.47327 -94.4643 -46.5207 71.566 -22.9508 9.25248 8.96588 6.04891 -4.94542 -83.6902 36.576 3.29821 5.18658 1.31946 1.24317 -1.70118 11.4683 1.10081 -3.18323 
223.441 90.7197 -206.935 -77.0143 -53.0657 -79.4373 -171.982 9.64837 84.5595 -47.6491 17.7399 -3.32147 68.4993 9.20496 8.14376 58.1602 30.1823 10.1981 176.885 49.9459 92.7724 -75.7326 7.433 -1.39737 63.0884 -1.49827 -1.16524 41.1316 -3.66643 -15.0137 -0.585325 7.87627 -89.3027 11.1242 -0.841281 1.46869 -0.547365 -0.775825 1.50428 -23.0803 -1.24375 1.148 -3.06761 -1.24376 1.148 91.5333 -41.3426 -100.037 42.9312 -22.6314 31.6587 -17.8681 -3.25466 -74.6974 -32.2031 -1.35713 -0.249656 -92.5943 -44.8681 73.9554 -23.4042 8.35066 5.40236 7.63697 -5.66152 -89.1901 36.8507 3.43662 5.49447 1.14997 2.72236 -0.399262 10.1511 2.38992 -3.17133 
217.248 91.931 -198.411 -76.0172 -57.293 -76.5626 -174.367 1.0927 90.1063 -39.8677 22.9705 -0.238079 62.763 3.06414 3.54822 53.0492 29.8984 17.2862 172.322 50.5937 94.1867 -57.9886 6.88381 1.81341 59.4632 0.355443 0.147175 37.8933 -2.71766 -12.723 -1.1863 7.74691 -89.7789 11.3925 -2.25713 0.670205 -0.276722 -2.22542 0.768923 -22.8274 -2.35415 -0.0394928 -2.81478 -2.35416 -0.0395026 92.1579 -40.4613 -99.1874 45.2146 -23.1717 38.5415 -16.4583 -2.24924 -75.7186 -31.0362 -1.24083 -0.521409 -92.3841 -44.4682 74.1704 -23.6119 8.40615 5.39327 8.89748 -7.22301 -96.1945 35.7493 3.70575 6.5932 -0.463223 3.40078 -0.294489 10.0975 3.3248 -0.511374 
210.406 92.9757 -189.447 -76.7058 -56.4454 -76.9605 -175.387 -7.18354 90.6237 -30.6011 23.8474 1.26743 50.2487 -7.97438 -7.14858 29.9246 9.95153 30.533 175.004 47.9675 94.1994 -37.8004 3.14267 1.78803 51.4221 3.52094 2.67032 31.6987 -1.6526 -11.0728 -1.3109 7.48492 -89.8784 11.9125 -2.54931 0.516856 0.243897 -2.52407 0.628622 -22.3113 -2.58669 -0.273729 -2.29865 -2.58671 -0.273734 92.0067 -40.4917 -99.4403 46.5417 -22.4499 44.1823 -15.2204 -1.23328 -76.2042 -29.6839 -0.938494 -1.51164 -91.0883 -43.5943 75.9773 -25.9797 8.73411 7.79204 11.7253 -8.8715 -101.822 31.7702 3.21151 6.35381 -2.78786 4.17928 -0.578376 10.7818 4.26307 0.746528 
203.775 93.7151 -180.535 -76.2144 -55.9499 -77.8398 -176.765 -5.89446 88.7754 -36.9767 27.4713 1.79548 45.0465 -10.5897 -5.34775 22.0423 -3.05155 14.0354 177.444 45.8621 93.623 -28.4381 0.677291 0.545655 48.6349 4.64944 3.71378 29.3863 -0.87741 -7.09839 -1.35378 7.22669 -89.8715 12.4312 -2.6288 0.55722 0.762761 -2.60172 0.672453 -21.7937 -2.67466 -0.259176 -1.78108 -2.67466 -0.259176 92.5684 -39.0391 -98.8193 47.6031 -20.9572 45.8592 -16.5265 -1.03776 -76.3693 -29.0005 -0.762504 -2.14569 -90.5266 -43.9729 76.9689 -27.5283 11.0026 9.98682 12.9149 -10.4139 -104.38 31.8079 2.94884 5.49705 -1.49596 4.46271 0.265348 7.6114 4.41412 0.659794 
